<svg width="56" height="37" viewBox="0 0 56 37" fill="none" xmlns="http://www.w3.org/2000/svg">
<path d="M7.27131 25.7386V25.2955C7.28267 23.2386 7.47585 21.6023 7.85085 20.3864C8.23722 19.1705 8.78267 18.1932 9.48722 17.4545C10.1918 16.7045 11.0497 16.017 12.0611 15.392C12.7543 14.9602 13.3736 14.4886 13.919 13.9773C14.4759 13.4545 14.9134 12.875 15.2315 12.2386C15.5497 11.5909 15.7088 10.8693 15.7088 10.0739C15.7088 9.17614 15.4986 8.39773 15.0781 7.73864C14.6577 7.07955 14.0895 6.56818 13.3736 6.20455C12.669 5.84091 11.8793 5.65909 11.0043 5.65909C10.1974 5.65909 9.4304 5.83523 8.70312 6.1875C7.98722 6.52841 7.39063 7.05114 6.91335 7.75568C6.44744 8.44886 6.18608 9.32955 6.12926 10.3977H0.0610796C0.117898 8.23864 0.640625 6.43182 1.62926 4.97727C2.62926 3.52273 3.94744 2.43182 5.58381 1.70454C7.23153 0.977271 9.04972 0.613635 11.0384 0.613635C13.2088 0.613635 15.1179 0.994317 16.7656 1.75568C18.4247 2.51705 19.7145 3.60227 20.6349 5.01136C21.5668 6.40909 22.0327 8.06818 22.0327 9.98864C22.0327 11.2841 21.8224 12.4432 21.402 13.4659C20.9929 14.4886 20.4077 15.3977 19.6463 16.1932C18.8849 16.9886 17.9815 17.6989 16.9361 18.3239C16.0156 18.892 15.2599 19.483 14.669 20.0966C14.0895 20.7102 13.6577 21.4318 13.3736 22.2614C13.1009 23.0795 12.9588 24.0909 12.9474 25.2955V25.7386H7.27131ZM10.2372 36.375C9.21449 36.375 8.33381 36.0114 7.59517 35.2841C6.85653 34.5568 6.48722 33.6705 6.48722 32.625C6.48722 31.6023 6.85653 30.7273 7.59517 30C8.33381 29.2727 9.21449 28.9091 10.2372 28.9091C11.2486 28.9091 12.1236 29.2727 12.8622 30C13.6122 30.7273 13.9872 31.6023 13.9872 32.625C13.9872 33.3182 13.8111 33.9489 13.4588 34.517C13.1179 35.0852 12.6634 35.5398 12.0952 35.8807C11.5384 36.2102 10.919 36.375 10.2372 36.375ZM27.7557 36V1.09091H34.0795V17.1307H34.5057L48.125 1.09091H55.8466L42.3466 16.7557L55.9659 36H48.3636L37.9489 21.0341L34.0795 25.6023V36H27.7557Z" fill="#4D5B9E"/>
</svg>
