<svg width="10" height="8" viewBox="0 0 103 81" fill="none" xmlns="http://www.w3.org/2000/svg">
<path d="M18.6193 50.2455V49.4727C18.6345 46.8212 18.8693 44.7076 19.3239 43.1318C19.7936 41.5561 20.4754 40.2833 21.3693 39.3136C22.2633 38.3439 23.339 37.4652 24.5966 36.6773C25.536 36.0712 26.3769 35.4424 27.1193 34.7909C27.8617 34.1394 28.4527 33.4197 28.892 32.6318C29.3314 31.8288 29.5511 30.9348 29.5511 29.95C29.5511 28.9045 29.3011 27.9879 28.8011 27.2C28.3011 26.4121 27.6269 25.8061 26.7784 25.3818C25.9451 24.9576 25.0208 24.7455 24.0057 24.7455C23.0208 24.7455 22.089 24.9652 21.2102 25.4045C20.3314 25.8288 19.6117 26.4652 19.0511 27.3136C18.4905 28.147 18.1875 29.1848 18.142 30.4273H8.86932C8.94508 27.397 9.67235 24.897 11.0511 22.9273C12.4299 20.9424 14.2557 19.4652 16.5284 18.4955C18.8011 17.5106 21.3087 17.0182 24.0511 17.0182C27.0663 17.0182 29.733 17.5182 32.0511 18.5182C34.3693 19.503 36.1875 20.9348 37.5057 22.8136C38.8239 24.6924 39.483 26.9576 39.483 29.6091C39.483 31.3818 39.1875 32.9576 38.5966 34.3364C38.0208 35.7 37.2102 36.9121 36.1648 37.9727C35.1193 39.0182 33.8845 39.9652 32.4602 40.8136C31.2633 41.5258 30.2784 42.2682 29.5057 43.0409C28.7481 43.8136 28.1799 44.7076 27.8011 45.7227C27.4375 46.7379 27.2481 47.9879 27.233 49.4727V50.2455H18.6193ZM23.1193 64.7909C21.6042 64.7909 20.3087 64.2606 19.233 63.2C18.1723 62.1242 17.6496 60.8364 17.6648 59.3364C17.6496 57.8515 18.1723 56.5788 19.233 55.5182C20.3087 54.4576 21.6042 53.9273 23.1193 53.9273C24.5587 53.9273 25.8239 54.4576 26.9148 55.5182C28.0057 56.5788 28.5587 57.8515 28.5739 59.3364C28.5587 60.3364 28.2936 61.253 27.7784 62.0864C27.2784 62.9045 26.6193 63.5636 25.8011 64.0636C24.983 64.5485 24.089 64.7909 23.1193 64.7909ZM46.483 64.2V17.6545H56.3239V38.1773H56.9375L73.6875 17.6545H85.483L68.2102 38.4955L85.6875 64.2H73.9148L61.1648 45.0636L56.3239 50.9727V64.2H46.483Z" fill="#FFFAD1"/>
<path d="M22.1193 49.0455V48.2727C22.1345 45.6212 22.3693 43.5076 22.8239 41.9318C23.2936 40.3561 23.9754 39.0833 24.8693 38.1136C25.7633 37.1439 26.839 36.2652 28.0966 35.4773C29.036 34.8712 29.8769 34.2424 30.6193 33.5909C31.3617 32.9394 31.9527 32.2197 32.392 31.4318C32.8314 30.6288 33.0511 29.7348 33.0511 28.75C33.0511 27.7045 32.8011 26.7879 32.3011 26C31.8011 25.2121 31.1269 24.6061 30.2784 24.1818C29.4451 23.7576 28.5208 23.5455 27.5057 23.5455C26.5208 23.5455 25.589 23.7651 24.7102 24.2045C23.8314 24.6288 23.1117 25.2652 22.5511 26.1136C21.9905 26.947 21.6875 27.9848 21.642 29.2273H12.3693C12.4451 26.197 13.1723 23.697 14.5511 21.7273C15.9299 19.7424 17.7557 18.2652 20.0284 17.2955C22.3011 16.3106 24.8087 15.8182 27.5511 15.8182C30.5663 15.8182 33.233 16.3182 35.5511 17.3182C37.8693 18.303 39.6875 19.7348 41.0057 21.6136C42.3239 23.4924 42.983 25.7576 42.983 28.4091C42.983 30.1818 42.6875 31.7576 42.0966 33.1364C41.5208 34.5 40.7102 35.7121 39.6648 36.7727C38.6193 37.8182 37.3845 38.7652 35.9602 39.6136C34.7633 40.3258 33.7784 41.0682 33.0057 41.8409C32.2481 42.6136 31.6799 43.5076 31.3011 44.5227C30.9375 45.5379 30.7481 46.7879 30.733 48.2727V49.0455H22.1193ZM26.6193 63.5909C25.1042 63.5909 23.8087 63.0606 22.733 62C21.6723 60.9242 21.1496 59.6364 21.1648 58.1364C21.1496 56.6515 21.6723 55.3788 22.733 54.3182C23.8087 53.2576 25.1042 52.7273 26.6193 52.7273C28.0587 52.7273 29.3239 53.2576 30.4148 54.3182C31.5057 55.3788 32.0587 56.6515 32.0739 58.1364C32.0587 59.1364 31.7936 60.053 31.2784 60.8864C30.7784 61.7045 30.1193 62.3636 29.3011 62.8636C28.483 63.3485 27.589 63.5909 26.6193 63.5909ZM49.983 63V16.4545H59.8239V36.9773H60.4375L77.1875 16.4545H88.983L71.7102 37.2955L89.1875 63H77.4148L64.6648 43.8636L59.8239 49.7727V63H49.983Z" fill="#DEEBF8"/>
<path d="M25.1193 48.0455V47.2727C25.1345 44.6212 25.3693 42.5076 25.8239 40.9318C26.2936 39.3561 26.9754 38.0833 27.8693 37.1136C28.7633 36.1439 29.839 35.2652 31.0966 34.4773C32.036 33.8712 32.8769 33.2424 33.6193 32.5909C34.3617 31.9394 34.9527 31.2197 35.392 30.4318C35.8314 29.6288 36.0511 28.7348 36.0511 27.75C36.0511 26.7045 35.8011 25.7879 35.3011 25C34.8011 24.2121 34.1269 23.6061 33.2784 23.1818C32.4451 22.7576 31.5208 22.5455 30.5057 22.5455C29.5208 22.5455 28.589 22.7651 27.7102 23.2045C26.8314 23.6288 26.1117 24.2652 25.5511 25.1136C24.9905 25.947 24.6875 26.9848 24.642 28.2273H15.3693C15.4451 25.197 16.1723 22.697 17.5511 20.7273C18.9299 18.7424 20.7557 17.2652 23.0284 16.2955C25.3011 15.3106 27.8087 14.8182 30.5511 14.8182C33.5663 14.8182 36.233 15.3182 38.5511 16.3182C40.8693 17.303 42.6875 18.7348 44.0057 20.6136C45.3239 22.4924 45.983 24.7576 45.983 27.4091C45.983 29.1818 45.6875 30.7576 45.0966 32.1364C44.5208 33.5 43.7102 34.7121 42.6648 35.7727C41.6193 36.8182 40.3845 37.7652 38.9602 38.6136C37.7633 39.3258 36.7784 40.0682 36.0057 40.8409C35.2481 41.6136 34.6799 42.5076 34.3011 43.5227C33.9375 44.5379 33.7481 45.7879 33.733 47.2727V48.0455H25.1193ZM29.6193 62.5909C28.1042 62.5909 26.8087 62.0606 25.733 61C24.6723 59.9242 24.1496 58.6364 24.1648 57.1364C24.1496 55.6515 24.6723 54.3788 25.733 53.3182C26.8087 52.2576 28.1042 51.7273 29.6193 51.7273C31.0587 51.7273 32.3239 52.2576 33.4148 53.3182C34.5057 54.3788 35.0587 55.6515 35.0739 57.1364C35.0587 58.1364 34.7936 59.053 34.2784 59.8864C33.7784 60.7045 33.1193 61.3636 32.3011 61.8636C31.483 62.3485 30.589 62.5909 29.6193 62.5909ZM52.983 62V15.4545H62.8239V35.9773H63.4375L80.1875 15.4545H91.983L74.7102 36.2955L92.1875 62H80.4148L67.6648 42.8636L62.8239 48.7727V62H52.983Z" fill="#4D5B9E"/>
</svg>
