<svg width="60" height="59" viewBox="0 0 60 59" fill="none" xmlns="http://www.w3.org/2000/svg">
<path d="M3.64631 47V12.0909H9.97017V28.1307H10.3963L24.0156 12.0909H31.7372L18.2372 27.7557L31.8565 47H24.2543L13.8395 32.0341L9.97017 36.6023V47H3.64631ZM41.7557 36.7386V36.2955C41.767 34.2386 41.9602 32.6023 42.3352 31.3864C42.7216 30.1705 43.267 29.1932 43.9716 28.4545C44.6761 27.7045 45.5341 27.017 46.5455 26.392C47.2386 25.9602 47.858 25.4886 48.4034 24.9773C48.9602 24.4545 49.3977 23.875 49.7159 23.2386C50.0341 22.5909 50.1932 21.8693 50.1932 21.0739C50.1932 20.1761 49.983 19.3977 49.5625 18.7386C49.142 18.0795 48.5739 17.5682 47.858 17.2045C47.1534 16.8409 46.3636 16.6591 45.4886 16.6591C44.6818 16.6591 43.9148 16.8352 43.1875 17.1875C42.4716 17.5284 41.875 18.0511 41.3977 18.7557C40.9318 19.4489 40.6705 20.3295 40.6136 21.3977H34.5455C34.6023 19.2386 35.125 17.4318 36.1136 15.9773C37.1136 14.5227 38.4318 13.4318 40.0682 12.7045C41.7159 11.9773 43.5341 11.6136 45.5227 11.6136C47.6932 11.6136 49.6023 11.9943 51.25 12.7557C52.9091 13.517 54.1989 14.6023 55.1193 16.0114C56.0511 17.4091 56.517 19.0682 56.517 20.9886C56.517 22.2841 56.3068 23.4432 55.8864 24.4659C55.4773 25.4886 54.892 26.3977 54.1307 27.1932C53.3693 27.9886 52.4659 28.6989 51.4205 29.3239C50.5 29.892 49.7443 30.483 49.1534 31.0966C48.5739 31.7102 48.142 32.4318 47.858 33.2614C47.5852 34.0795 47.4432 35.0909 47.4318 36.2955V36.7386H41.7557ZM44.7216 47.375C43.6989 47.375 42.8182 47.0114 42.0795 46.2841C41.3409 45.5568 40.9716 44.6705 40.9716 43.625C40.9716 42.6023 41.3409 41.7273 42.0795 41C42.8182 40.2727 43.6989 39.9091 44.7216 39.9091C45.733 39.9091 46.608 40.2727 47.3466 41C48.0966 41.7273 48.4716 42.6023 48.4716 43.625C48.4716 44.3182 48.2955 44.9489 47.9432 45.517C47.6023 46.0852 47.1477 46.5398 46.5795 46.8807C46.0227 47.2102 45.4034 47.375 44.7216 47.375Z" fill="#FFFAD1"/>
<path d="M4.64631 46V11.0909H10.9702V27.1307H11.3963L25.0156 11.0909H32.7372L19.2372 26.7557L32.8565 46H25.2543L14.8395 31.0341L10.9702 35.6023V46H4.64631ZM42.7557 35.7386V35.2955C42.767 33.2386 42.9602 31.6023 43.3352 30.3864C43.7216 29.1705 44.267 28.1932 44.9716 27.4545C45.6761 26.7045 46.5341 26.017 47.5455 25.392C48.2386 24.9602 48.858 24.4886 49.4034 23.9773C49.9602 23.4545 50.3977 22.875 50.7159 22.2386C51.0341 21.5909 51.1932 20.8693 51.1932 20.0739C51.1932 19.1761 50.983 18.3977 50.5625 17.7386C50.142 17.0795 49.5739 16.5682 48.858 16.2045C48.1534 15.8409 47.3636 15.6591 46.4886 15.6591C45.6818 15.6591 44.9148 15.8352 44.1875 16.1875C43.4716 16.5284 42.875 17.0511 42.3977 17.7557C41.9318 18.4489 41.6705 19.3295 41.6136 20.3977H35.5455C35.6023 18.2386 36.125 16.4318 37.1136 14.9773C38.1136 13.5227 39.4318 12.4318 41.0682 11.7045C42.7159 10.9773 44.5341 10.6136 46.5227 10.6136C48.6932 10.6136 50.6023 10.9943 52.25 11.7557C53.9091 12.517 55.1989 13.6023 56.1193 15.0114C57.0511 16.4091 57.517 18.0682 57.517 19.9886C57.517 21.2841 57.3068 22.4432 56.8864 23.4659C56.4773 24.4886 55.892 25.3977 55.1307 26.1932C54.3693 26.9886 53.4659 27.6989 52.4205 28.3239C51.5 28.892 50.7443 29.483 50.1534 30.0966C49.5739 30.7102 49.142 31.4318 48.858 32.2614C48.5852 33.0795 48.4432 34.0909 48.4318 35.2955V35.7386H42.7557ZM45.7216 46.375C44.6989 46.375 43.8182 46.0114 43.0795 45.2841C42.3409 44.5568 41.9716 43.6705 41.9716 42.625C41.9716 41.6023 42.3409 40.7273 43.0795 40C43.8182 39.2727 44.6989 38.9091 45.7216 38.9091C46.733 38.9091 47.608 39.2727 48.3466 40C49.0966 40.7273 49.4716 41.6023 49.4716 42.625C49.4716 43.3182 49.2955 43.9489 48.9432 44.517C48.6023 45.0852 48.1477 45.5398 47.5795 45.8807C47.0227 46.2102 46.4034 46.375 45.7216 46.375Z" fill="#DEEBF8"/>
</svg>
